HIERARCHY
ROOT root
{
	OFFSET 0.000000 0.000000 0.000000
	CHANNELS 6 Xposition Yposition Zposition Zrotation Yrotation Xrotation
	JOINT lhip
	{
		OFFSET 0.058581 -0.082280 -0.017664
		CHANNELS 3 Zrotation Yrotation Xrotation
		JOINT lknee
		{
			OFFSET 0.043451 -0.386469 0.008037
			CHANNELS 3 Zrotation Yrotation Xrotation
			JOINT lankle
			{
				OFFSET -0.014790 -0.426874 -0.037428
				CHANNELS 3 Zrotation Yrotation Xrotation
				JOINT ltoe
				{
					OFFSET 0.041054 -0.060286 0.122042
					CHANNELS 3 Zrotation Yrotation Xrotation
					End Site
					{
						OFFSET 0.000000 0.000000 0.000000
					}
				}
			}
		}
	}
	JOINT rhip
	{
		OFFSET -0.060310 -0.090513 -0.013543
		CHANNELS 3 Zrotation Yrotation Xrotation
		JOINT rknee
		{
			OFFSET -0.043257 -0.383688 -0.004843
			CHANNELS 3 Zrotation Yrotation Xrotation
			JOINT rankle
			{
				OFFSET 0.019056 -0.420046 -0.034562
				CHANNELS 3 Zrotation Yrotation Xrotation
				JOINT rtoe
				{
					OFFSET -0.034840 -0.062106 0.130323
					CHANNELS 3 Zrotation Yrotation Xrotation
					End Site
					{
						OFFSET 0.000000 0.000000 0.000000
					}
				}
			}
		}
	}
	JOINT lowerback
	{
		OFFSET 0.004439 0.124404 -0.038385
		CHANNELS 3 Zrotation Yrotation Xrotation
		JOINT upperback
		{
			OFFSET 0.004488 0.137956 0.026820
			CHANNELS 3 Zrotation Yrotation Xrotation
			JOINT chest
			{
				OFFSET -0.002265 0.056032 0.002855
				CHANNELS 3 Zrotation Yrotation Xrotation
				JOINT lowerneck
				{
					OFFSET -0.013390 0.211636 -0.033468
					CHANNELS 3 Zrotation Yrotation Xrotation
					JOINT upperneck
					{
						OFFSET 0.010113 0.088937 0.050410
						CHANNELS 3 Zrotation Yrotation Xrotation
						End Site
						{
							OFFSET 0.000000 0.000000 0.000000
						}
					}
				}
				JOINT lclavicle
				{
					OFFSET 0.071702 0.114000 -0.018898
					CHANNELS 3 Zrotation Yrotation Xrotation
					JOINT lshoulder
					{
						OFFSET 0.122921 0.045205 -0.019046
						CHANNELS 3 Zrotation Yrotation Xrotation
						JOINT lelbow
						{
							OFFSET 0.255332 -0.015649 -0.022946
							CHANNELS 3 Zrotation Yrotation Xrotation
							JOINT lwrist
							{
								OFFSET 0.265709 0.012698 -0.007375
								CHANNELS 3 Zrotation Yrotation Xrotation
								End Site
								{
									OFFSET 0.000000 0.000000 0.000000
								}
							}
						}
					}
				}
				JOINT rclavicle
				{
					OFFSET -0.082954 0.112472 -0.023707
					CHANNELS 3 Zrotation Yrotation Xrotation
					JOINT rshoulder
					{
						OFFSET -0.113228 0.046853 -0.008472
						CHANNELS 3 Zrotation Yrotation Xrotation
						JOINT relbow
						{
							OFFSET -0.260127 -0.014369 -0.031269
							CHANNELS 3 Zrotation Yrotation Xrotation
							JOINT rwrist
							{
								OFFSET -0.269108 0.006794 -0.006027
								CHANNELS 3 Zrotation Yrotation Xrotation
								End Site
								{
									OFFSET 0.000000 0.000000 0.000000
								}
							}
						}
					}
				}
			}
		}
	}
}
MOTION
Frames: 14
Frame Time: 0.033333
-0.719757 0.259153 1.003492 89.677061 1.011209 87.948669 2.681087 2.194455 -0.067264 -4.585765 1.019413 7.012444 -0.149296 10.797428 -8.205199 0.000000 -0.000000 0.000000 -2.441892 -2.435849 -1.584198 4.521041 -2.792076 9.038294 3.401192 -4.761742 -6.906240 0.000000 -0.000000 0.000000 0.023335 0.727688 5.452227 2.354371 -4.241493 7.026869 0.297482 -1.612575 -1.674259 -0.587585 1.019495 10.407809 1.030565 -1.548752 10.841536 -23.620757 -0.046034 2.270304 -62.082081 -12.126957 12.278794 9.153487 -19.858610 -3.922803 -3.073146 -6.286707 -3.169857 24.755222 2.934551 3.014125 56.670916 10.266924 10.054479 -16.609798 18.145676 -14.035824 2.553019 4.558267 -5.718776 
-0.719381 0.259129 1.003305 89.748718 1.023909 87.923053 2.668825 2.103386 -0.390922 -4.627610 1.135358 7.606141 -0.025683 10.892816 -8.139462 0.000000 -0.000000 0.000000 -2.408149 -2.397386 -1.494114 4.522325 -2.629965 8.971422 3.471166 -5.041401 -6.985533 0.000000 -0.000000 0.000000 0.071659 0.714288 5.560527 2.244743 -4.245145 6.723253 0.386901 -1.675603 -1.375672 -0.518266 0.994119 10.162822 0.947859 -1.508744 11.261544 -23.359794 -0.028452 2.288447 -62.119506 -12.202707 12.172172 9.294443 -19.449715 -3.904255 -3.070034 -6.204242 -3.359794 24.716423 2.921608 3.008129 56.781859 10.330151 10.137475 -16.682072 17.768504 -14.132068 2.594279 4.541309 -5.722660 
-0.719214 0.259308 1.003194 89.826050 1.049223 87.878934 2.649321 2.001583 -0.749406 -4.622363 1.243414 8.314490 -0.017219 10.960257 -8.175118 0.000000 -0.000000 0.000000 -2.384810 -2.425344 -1.398284 4.526052 -2.603269 8.928093 3.416980 -5.123419 -7.017995 0.000000 -0.000000 0.000000 0.103376 0.758450 5.639426 2.267734 -4.302387 6.727737 0.418315 -1.711760 -1.352335 -0.514793 0.976231 10.137444 0.939551 -1.529329 11.390146 -23.312423 -0.006455 2.295779 -61.973007 -12.264475 12.043294 9.364252 -19.140819 -4.117860 -3.157642 -6.174355 -3.449234 24.744826 2.899104 2.993894 56.730100 10.309946 10.089598 -16.634368 17.448545 -14.185844 2.619979 4.538544 -5.659150 
-0.719277 0.259592 1.003064 89.868563 1.095617 87.823248 2.681484 1.864874 -1.031085 -4.658437 1.260833 8.921368 -0.017286 11.054528 -8.282595 0.000000 -0.000000 0.000000 -2.362186 -2.461191 -1.294452 4.558005 -2.563139 8.859220 3.347478 -5.179595 -7.022084 0.000000 -0.000000 0.000000 0.151378 0.822616 5.742198 2.298103 -4.329028 6.749718 0.446544 -1.711261 -1.353471 -0.501150 0.899247 10.160845 0.942788 -1.576082 11.648592 -23.300150 0.005704 2.360092 -61.820795 -12.328503 11.947645 9.415351 -18.875077 -4.218844 -3.149869 -6.130487 -3.494306 24.779666 2.897456 3.064460 56.659550 10.280021 10.030953 -16.564082 17.040245 -14.218607 2.616269 4.506868 -5.674215 
-0.719516 0.259804 1.003007 89.878396 1.122081 87.802658 2.698565 1.812080 -1.097396 -4.670407 1.249411 9.074337 0.012419 11.056807 -8.345394 0.000000 -0.000000 0.000000 -2.352803 -2.462868 -1.256125 4.571669 -2.562644 8.798484 3.330616 -5.183630 -7.011447 0.000000 -0.000000 0.000000 0.161554 0.857426 5.794439 2.324290 -4.318721 6.790350 0.460222 -1.699563 -1.377969 -0.470942 0.850184 10.189534 0.955813 -1.608488 11.842805 -23.339636 0.029008 2.394403 -61.719582 -12.373397 11.899223 9.421420 -18.819508 -4.309020 -3.119835 -6.090272 -3.551414 24.826455 2.888887 3.121314 56.599444 10.259563 10.002651 -16.510083 16.826256 -14.244738 2.616998 4.446433 -5.655206 
-0.720029 0.260131 1.002888 89.901875 1.159509 87.811821 2.686071 1.787216 -1.103231 -4.628315 1.182644 9.005506 0.061628 11.053580 -8.362691 0.000000 -0.000000 0.000000 -2.341829 -2.472656 -1.261845 4.590025 -2.568050 8.734849 3.328991 -5.193562 -6.977258 0.000000 -0.000000 0.000000 0.177288 0.877222 5.819034 2.350200 -4.294913 6.850437 0.471836 -1.670975 -1.404367 -0.444076 0.781162 10.305381 0.982701 -1.628587 12.145999 -23.381813 0.079850 2.452128 -61.651300 -12.446053 11.892786 9.405067 -18.778196 -4.323086 -3.061321 -6.106526 -3.577457 24.866315 2.887567 3.183750 56.570221 10.282117 9.992353 -16.439391 16.445219 -14.252391 2.611009 4.391977 -5.656681 
-0.720785 0.260511 1.002785 89.960034 1.188996 87.866925 2.673277 1.781372 -1.071631 -4.585160 1.070105 8.736235 0.096904 10.997079 -8.328251 0.000000 -0.000000 0.000000 -2.340937 -2.510293 -1.347307 4.601295 -2.591786 8.702933 3.369612 -5.209923 -6.901326 0.000000 -0.000000 0.000000 0.176829 0.874081 5.840229 2.372236 -4.275021 6.879935 0.487191 -1.656407 -1.444513 -0.435877 0.727347 10.469044 1.030598 -1.611077 12.509791 -23.430501 0.151780 2.545209 -61.644530 -12.519826 11.917894 9.380295 -18.812536 -4.285472 -2.958931 -6.119071 -3.627835 24.909270 2.846225 3.244601 56.564269 10.364892 9.989638 -16.371740 16.095777 -14.267919 2.598869 4.295718 -5.700923 
-0.721821 0.260915 1.002766 90.092571 1.208114 87.935439 2.669385 1.744608 -1.035821 -4.571317 0.898337 8.390656 0.121742 10.925057 -8.256014 0.000000 -0.000000 0.000000 -2.346492 -2.547111 -1.482158 4.602162 -2.661914 8.712339 3.409058 -5.244380 -6.838589 0.000000 -0.000000 0.000000 0.161742 0.848858 5.913597 2.391512 -4.278718 6.855458 0.509033 -1.668332 -1.454896 -0.439893 0.660756 10.639513 1.099264 -1.597641 12.804150 -23.475887 0.202706 2.638210 -61.691794 -12.599575 11.971743 9.348356 -18.860448 -4.212671 -2.868184 -6.141796 -3.694041 24.945065 2.791127 3.272954 56.596461 10.418475 10.001497 -16.342658 15.895789 -14.266616 2.590169 4.246362 -5.773582 
-0.723080 0.261294 1.002838 90.265032 1.210337 88.008505 2.663367 1.730614 -1.007517 -4.581644 0.726215 8.000715 0.119037 10.833965 -8.119612 0.000000 -0.000000 0.000000 -2.357083 -2.560557 -1.649599 4.584453 -2.759596 8.744313 3.436858 -5.303417 -6.778852 0.000000 -0.000000 0.000000 0.125229 0.807273 5.984578 2.407139 -4.294015 6.879297 0.528556 -1.691320 -1.439855 -0.438176 0.606004 10.747461 1.156279 -1.639804 12.960006 -23.513644 0.195758 2.695249 -61.784721 -12.680530 12.066763 9.325713 -18.878876 -4.120055 -2.794964 -6.201204 -3.678558 24.985980 2.774829 3.286900 56.638893 10.477742 10.029080 -16.345414 15.834696 -14.265641 2.570822 4.222891 -5.833752 
-0.725043 0.261713 1.003072 90.424555 1.194946 88.110388 2.641979 1.769637 -0.999500 -4.604819 0.549109 7.497824 0.120209 10.710712 -7.879065 0.000000 -0.000000 0.000000 -2.374477 -2.555266 -1.913423 4.543465 -2.881444 8.798756 3.470084 -5.353415 -6.668920 0.000000 -0.000000 0.000000 0.058966 0.755591 6.117045 2.410036 -4.296981 6.911140 0.551082 -1.704462 -1.415901 -0.456227 0.553242 10.786249 1.204769 -1.678446 13.074219 -23.556516 0.126143 2.755040 -61.925376 -12.769280 12.195268 9.293594 -18.913477 -4.033492 -2.737169 -6.246948 -3.654786 25.038969 2.815281 3.302585 56.694019 10.555072 10.103110 -16.339516 15.913224 -14.203800 2.565935 4.270370 -5.837420 
-0.726778 0.262021 1.003228 90.514621 1.177885 88.221741 2.625708 1.790508 -1.055293 -4.634764 0.476487 7.149981 0.133489 10.610365 -7.690905 0.000000 -0.000000 0.000000 -2.395821 -2.573733 -2.170351 4.517824 -2.949451 8.837962 3.516057 -5.378661 -6.557371 0.000000 -0.000000 0.000000 0.027144 0.731888 6.220788 2.387482 -4.294935 6.898246 0.547928 -1.722860 -1.376454 -0.465214 0.524836 10.745878 1.238028 -1.705146 13.156421 -23.573134 0.068233 2.802132 -62.033005 -12.830966 12.312220 9.238121 -18.970052 -3.930721 -2.732892 -6.263034 -3.677981 25.054629 2.859639 3.313463 56.773946 10.629660 10.203774 -16.323610 16.059489 -14.132622 2.602657 4.264234 -5.891919 
-0.728464 0.262295 1.003381 90.529103 1.156304 88.327619 2.607150 1.820296 -1.116023 -4.661553 0.465162 6.832713 0.133879 10.521561 -7.500395 0.000000 -0.000000 0.000000 -2.424813 -2.591416 -2.429852 4.500890 -2.986499 8.877749 3.542022 -5.359096 -6.461217 0.000000 -0.000000 0.000000 0.006882 0.739193 6.314834 2.355258 -4.265452 6.919677 0.525499 -1.715365 -1.374292 -0.462099 0.503385 10.700748 1.274490 -1.727300 13.167198 -23.637360 0.020391 2.811017 -62.082758 -12.867798 12.404254 9.170175 -19.033862 -3.872447 -2.730903 -6.325165 -3.652170 25.084704 2.919047 3.329251 56.825354 10.681185 10.290732 -16.282051 16.240024 -14.065309 2.615105 4.299881 -5.841411 
-0.730036 0.262527 1.003552 90.470051 1.140360 88.409701 2.588448 1.874269 -1.153036 -4.678575 0.469426 6.534204 0.140923 10.472224 -7.311816 0.000000 -0.000000 0.000000 -2.451880 -2.572696 -2.654099 4.494022 -3.011023 8.899899 3.558684 -5.315723 -6.368845 0.000000 -0.000000 0.000000 -0.001372 0.745382 6.430424 2.313402 -4.203023 6.921788 0.501226 -1.666738 -1.381425 -0.470840 0.472204 10.668888 1.302169 -1.732888 13.128018 -23.697531 -0.037684 2.823287 -62.141386 -12.892510 12.475799 9.131400 -19.058924 -3.869266 -2.690161 -6.395258 -3.665789 25.089383 3.034140 3.370071 56.867655 10.764441 10.368897 -16.234832 16.315860 -14.010117 2.570912 4.296965 -5.806843 
-0.731567 0.262703 1.003703 90.393765 1.129595 88.482242 2.564693 1.905413 -1.201739 -4.679594 0.485674 6.297247 0.154578 10.452814 -7.156775 0.000000 -0.000000 0.000000 -2.464432 -2.524089 -2.862352 4.479357 -3.008060 8.913231 3.599150 -5.304852 -6.255303 0.000000 -0.000000 0.000000 -0.005200 0.751290 6.561823 2.264472 -4.132488 6.864423 0.492203 -1.619262 -1.380899 -0.484790 0.447071 10.587445 1.322071 -1.714828 13.147651 -23.706146 -0.120213 2.875001 -62.248666 -12.932780 12.544928 9.140618 -19.000487 -3.860536 -2.676708 -6.438462 -3.699104 25.035562 3.195757 3.432816 56.937292 10.873870 10.465455 -16.201235 16.295484 -13.940894 2.563151 4.253926 -5.838066 
